<svg xmlns="http://www.w3.org/2000/svg" xmlns:xlink="http://www.w3.org/1999/xlink" width="400" zoomAndPan="magnify" viewBox="0 0 300 37.5" height="50" preserveAspectRatio="xMidYMid meet" version="1.0"><defs><g/><clipPath id="8170b125d6"><path d="M 26 7.003906 L 37.828125 7.003906 L 37.828125 19 L 26 19 Z M 26 7.003906 " clip-rule="nonzero"/></clipPath><clipPath id="0389c8d76b"><path d="M 17 7.003906 L 25 7.003906 L 25 31.425781 L 17 31.425781 Z M 17 7.003906 " clip-rule="nonzero"/></clipPath><clipPath id="c8b9297d65"><path d="M 13.40625 11 L 34 11 L 34 31.425781 L 13.40625 31.425781 Z M 13.40625 11 " clip-rule="nonzero"/></clipPath><clipPath id="b77d5e80de"><path d="M 13.40625 20 L 37.828125 20 L 37.828125 28 L 13.40625 28 Z M 13.40625 20 " clip-rule="nonzero"/></clipPath></defs><g clip-path="url(#8170b125d6)"><path fill="#ffffff" d="M 31.640625 18.261719 L 37.773438 18.261719 L 37.777344 7.003906 L 26.523438 7.003906 L 26.523438 13.160156 L 31.640625 13.160156 Z M 31.640625 18.261719 " fill-opacity="1" fill-rule="evenodd"/></g><g clip-path="url(#0389c8d76b)"><path fill="#ffffff" d="M 24.636719 13.234375 L 24.636719 7.039062 C 22.050781 7.234375 19.613281 8.246094 17.644531 9.9375 L 22.023438 14.316406 C 22.792969 13.75 23.6875 13.382812 24.636719 13.234375 Z M 24.636719 31.375 L 24.636719 25.183594 C 23.6875 25.039062 22.792969 24.664062 22.019531 24.101562 L 17.640625 28.480469 C 19.613281 30.167969 22.050781 31.179688 24.636719 31.375 Z M 24.636719 31.375 " fill-opacity="1" fill-rule="evenodd"/></g><g clip-path="url(#c8b9297d65)"><path fill="#ffffff" d="M 20.691406 15.648438 L 16.308594 11.273438 C 14.617188 13.242188 13.605469 15.679688 13.410156 18.261719 L 19.605469 18.261719 C 19.753906 17.316406 20.121094 16.421875 20.691406 15.648438 Z M 33.519531 28.480469 L 29.136719 24.101562 C 28.363281 24.664062 27.46875 25.039062 26.523438 25.183594 L 26.523438 31.382812 C 29.105469 31.179688 31.550781 30.167969 33.519531 28.480469 Z M 33.519531 28.480469 " fill-opacity="1" fill-rule="evenodd"/></g><g clip-path="url(#b77d5e80de)"><path fill="#ffffff" d="M 19.601562 20.152344 L 13.410156 20.152344 C 13.605469 22.734375 14.617188 25.175781 16.308594 27.148438 L 20.691406 22.765625 C 20.121094 21.992188 19.753906 21.097656 19.601562 20.152344 Z M 37.746094 20.152344 L 31.554688 20.152344 C 31.410156 21.097656 31.035156 21.992188 30.472656 22.765625 L 34.855469 27.148438 C 36.539062 25.179688 37.550781 22.734375 37.746094 20.152344 Z M 37.746094 20.152344 " fill-opacity="1" fill-rule="evenodd"/></g><g fill="#ffffff" fill-opacity="1"><g transform="translate(98.903749, 25.323145)"><g><path d="M 9.9375 -20.265625 L 14.15625 -19.828125 L 14.15625 0 L 10.421875 0 L 10.203125 -1.5625 C 9.816406 -1.007812 9.296875 -0.535156 8.640625 -0.140625 C 7.992188 0.253906 7.207031 0.453125 6.28125 0.453125 C 5.101562 0.453125 4.128906 0.140625 3.359375 -0.484375 C 2.585938 -1.117188 2.007812 -2.003906 1.625 -3.140625 C 1.25 -4.273438 1.0625 -5.609375 1.0625 -7.140625 C 1.0625 -8.597656 1.289062 -9.890625 1.75 -11.015625 C 2.207031 -12.148438 2.859375 -13.039062 3.703125 -13.6875 C 4.546875 -14.332031 5.550781 -14.65625 6.71875 -14.65625 C 7.351562 -14.65625 7.941406 -14.539062 8.484375 -14.3125 C 9.023438 -14.09375 9.507812 -13.769531 9.9375 -13.34375 Z M 7.859375 -11.5625 C 7.128906 -11.5625 6.539062 -11.21875 6.09375 -10.53125 C 5.644531 -9.84375 5.421875 -8.703125 5.421875 -7.109375 C 5.421875 -5.941406 5.515625 -5.035156 5.703125 -4.390625 C 5.890625 -3.742188 6.144531 -3.289062 6.46875 -3.03125 C 6.800781 -2.769531 7.179688 -2.640625 7.609375 -2.640625 C 8.085938 -2.640625 8.519531 -2.785156 8.90625 -3.078125 C 9.289062 -3.378906 9.632812 -3.78125 9.9375 -4.28125 L 9.9375 -10.40625 C 9.644531 -10.769531 9.332031 -11.050781 9 -11.25 C 8.675781 -11.457031 8.296875 -11.5625 7.859375 -11.5625 Z M 7.859375 -11.5625 "/></g></g></g><g fill="#ffffff" fill-opacity="1"><g transform="translate(114.925221, 25.323145)"><g><path d="M 5.53125 -5.859375 C 5.625 -5.085938 5.820312 -4.460938 6.125 -3.984375 C 6.4375 -3.503906 6.832031 -3.15625 7.3125 -2.9375 C 7.800781 -2.726562 8.34375 -2.625 8.9375 -2.625 C 9.582031 -2.625 10.207031 -2.726562 10.8125 -2.9375 C 11.425781 -3.15625 12.015625 -3.441406 12.578125 -3.796875 L 14.265625 -1.5 C 13.597656 -0.925781 12.789062 -0.457031 11.84375 -0.09375 C 10.894531 0.269531 9.816406 0.453125 8.609375 0.453125 C 6.984375 0.453125 5.625 0.128906 4.53125 -0.515625 C 3.4375 -1.160156 2.613281 -2.046875 2.0625 -3.171875 C 1.507812 -4.304688 1.234375 -5.609375 1.234375 -7.078125 C 1.234375 -8.472656 1.5 -9.742188 2.03125 -10.890625 C 2.5625 -12.035156 3.34375 -12.945312 4.375 -13.625 C 5.40625 -14.3125 6.664062 -14.65625 8.15625 -14.65625 C 9.507812 -14.65625 10.679688 -14.363281 11.671875 -13.78125 C 12.660156 -13.207031 13.425781 -12.375 13.96875 -11.28125 C 14.519531 -10.195312 14.796875 -8.894531 14.796875 -7.375 C 14.796875 -7.132812 14.789062 -6.875 14.78125 -6.59375 C 14.769531 -6.320312 14.75 -6.078125 14.71875 -5.859375 Z M 8.15625 -11.828125 C 7.394531 -11.828125 6.78125 -11.550781 6.3125 -11 C 5.851562 -10.457031 5.578125 -9.59375 5.484375 -8.40625 L 10.6875 -8.40625 C 10.675781 -9.4375 10.472656 -10.265625 10.078125 -10.890625 C 9.691406 -11.515625 9.050781 -11.828125 8.15625 -11.828125 Z M 8.15625 -11.828125 "/></g></g></g><g fill="#ffffff" fill-opacity="1"><g transform="translate(130.946693, 25.323145)"><g><path d="M 15.25 -14.1875 L 10.53125 0 L 5.5625 0 L 0.78125 -14.1875 L 5.328125 -14.1875 L 8.09375 -3.234375 L 10.984375 -14.1875 Z M 15.25 -14.1875 "/></g></g></g><g fill="#ffffff" fill-opacity="1"><g transform="translate(146.968165, 25.323145)"><g><path d="M 5.53125 -5.859375 C 5.625 -5.085938 5.820312 -4.460938 6.125 -3.984375 C 6.4375 -3.503906 6.832031 -3.15625 7.3125 -2.9375 C 7.800781 -2.726562 8.34375 -2.625 8.9375 -2.625 C 9.582031 -2.625 10.207031 -2.726562 10.8125 -2.9375 C 11.425781 -3.15625 12.015625 -3.441406 12.578125 -3.796875 L 14.265625 -1.5 C 13.597656 -0.925781 12.789062 -0.457031 11.84375 -0.09375 C 10.894531 0.269531 9.816406 0.453125 8.609375 0.453125 C 6.984375 0.453125 5.625 0.128906 4.53125 -0.515625 C 3.4375 -1.160156 2.613281 -2.046875 2.0625 -3.171875 C 1.507812 -4.304688 1.234375 -5.609375 1.234375 -7.078125 C 1.234375 -8.472656 1.5 -9.742188 2.03125 -10.890625 C 2.5625 -12.035156 3.34375 -12.945312 4.375 -13.625 C 5.40625 -14.3125 6.664062 -14.65625 8.15625 -14.65625 C 9.507812 -14.65625 10.679688 -14.363281 11.671875 -13.78125 C 12.660156 -13.207031 13.425781 -12.375 13.96875 -11.28125 C 14.519531 -10.195312 14.796875 -8.894531 14.796875 -7.375 C 14.796875 -7.132812 14.789062 -6.875 14.78125 -6.59375 C 14.769531 -6.320312 14.75 -6.078125 14.71875 -5.859375 Z M 8.15625 -11.828125 C 7.394531 -11.828125 6.78125 -11.550781 6.3125 -11 C 5.851562 -10.457031 5.578125 -9.59375 5.484375 -8.40625 L 10.6875 -8.40625 C 10.675781 -9.4375 10.472656 -10.265625 10.078125 -10.890625 C 9.691406 -11.515625 9.050781 -11.828125 8.15625 -11.828125 Z M 8.15625 -11.828125 "/></g></g></g><g fill="#ffffff" fill-opacity="1"><g transform="translate(162.989637, 25.323145)"><g><path d="M 9.265625 -19.828125 L 9.265625 -4.46875 C 9.265625 -3.894531 9.425781 -3.484375 9.75 -3.234375 C 10.082031 -2.992188 10.535156 -2.875 11.109375 -2.875 C 11.472656 -2.875 11.820312 -2.914062 12.15625 -3 C 12.5 -3.082031 12.816406 -3.179688 13.109375 -3.296875 L 14.125 -0.484375 C 13.644531 -0.234375 13.066406 -0.015625 12.390625 0.171875 C 11.710938 0.359375 10.921875 0.453125 10.015625 0.453125 C 8.304688 0.453125 7.050781 -0.0351562 6.25 -1.015625 C 5.445312 -2.003906 5.046875 -3.328125 5.046875 -4.984375 L 5.046875 -16.9375 L 0.875 -16.9375 L 0.875 -19.828125 Z M 9.265625 -19.828125 "/></g></g></g><g fill="#ffffff" fill-opacity="1"><g transform="translate(179.01111, 25.323145)"><g><path d="M 8.015625 -14.65625 C 9.472656 -14.65625 10.710938 -14.34375 11.734375 -13.71875 C 12.765625 -13.09375 13.550781 -12.21875 14.09375 -11.09375 C 14.632812 -9.96875 14.90625 -8.648438 14.90625 -7.140625 C 14.90625 -5.554688 14.628906 -4.195312 14.078125 -3.0625 C 13.535156 -1.925781 12.75 -1.054688 11.71875 -0.453125 C 10.695312 0.148438 9.460938 0.453125 8.015625 0.453125 C 6.566406 0.453125 5.328125 0.15625 4.296875 -0.4375 C 3.273438 -1.03125 2.488281 -1.894531 1.9375 -3.03125 C 1.394531 -4.164062 1.125 -5.523438 1.125 -7.109375 C 1.125 -8.609375 1.394531 -9.925781 1.9375 -11.0625 C 2.488281 -12.195312 3.273438 -13.078125 4.296875 -13.703125 C 5.328125 -14.335938 6.566406 -14.65625 8.015625 -14.65625 Z M 8.015625 -11.546875 C 7.148438 -11.546875 6.507812 -11.191406 6.09375 -10.484375 C 5.6875 -9.773438 5.484375 -8.648438 5.484375 -7.109375 C 5.484375 -5.535156 5.6875 -4.394531 6.09375 -3.6875 C 6.507812 -2.988281 7.148438 -2.640625 8.015625 -2.640625 C 8.878906 -2.640625 9.515625 -2.988281 9.921875 -3.6875 C 10.335938 -4.394531 10.546875 -5.546875 10.546875 -7.140625 C 10.546875 -8.671875 10.335938 -9.785156 9.921875 -10.484375 C 9.515625 -11.191406 8.878906 -11.546875 8.015625 -11.546875 Z M 8.015625 -11.546875 "/></g></g></g><g fill="#ffffff" fill-opacity="1"><g transform="translate(195.032582, 25.323145)"><g><path d="M 9.71875 -14.65625 C 10.957031 -14.65625 11.957031 -14.347656 12.71875 -13.734375 C 13.476562 -13.117188 14.03125 -12.25 14.375 -11.125 C 14.726562 -10 14.90625 -8.671875 14.90625 -7.140625 C 14.90625 -5.671875 14.691406 -4.363281 14.265625 -3.21875 C 13.835938 -2.082031 13.21875 -1.1875 12.40625 -0.53125 C 11.59375 0.125 10.609375 0.453125 9.453125 0.453125 C 8.078125 0.453125 6.957031 -0.0390625 6.09375 -1.03125 L 6.09375 5.484375 L 1.875 5.921875 L 1.875 -14.1875 L 5.609375 -14.1875 L 5.796875 -12.59375 C 6.378906 -13.332031 7.007812 -13.859375 7.6875 -14.171875 C 8.375 -14.492188 9.050781 -14.65625 9.71875 -14.65625 Z M 8.421875 -11.546875 C 7.929688 -11.546875 7.5 -11.394531 7.125 -11.09375 C 6.75 -10.800781 6.40625 -10.40625 6.09375 -9.90625 L 6.09375 -3.921875 C 6.382812 -3.484375 6.691406 -3.160156 7.015625 -2.953125 C 7.347656 -2.742188 7.734375 -2.640625 8.171875 -2.640625 C 8.921875 -2.640625 9.503906 -2.976562 9.921875 -3.65625 C 10.335938 -4.34375 10.546875 -5.484375 10.546875 -7.078125 C 10.546875 -8.253906 10.460938 -9.164062 10.296875 -9.8125 C 10.128906 -10.457031 9.882812 -10.90625 9.5625 -11.15625 C 9.238281 -11.414062 8.859375 -11.546875 8.421875 -11.546875 Z M 8.421875 -11.546875 "/></g></g></g><g fill="#ffffff" fill-opacity="1"><g transform="translate(211.054054, 25.323145)"><g><path d="M 12.359375 -14.65625 C 13.035156 -14.65625 13.59375 -14.507812 14.03125 -14.21875 C 14.46875 -13.9375 14.789062 -13.488281 15 -12.875 C 15.21875 -12.269531 15.328125 -11.476562 15.328125 -10.5 L 15.328125 0 L 11.703125 0 L 11.703125 -10.015625 C 11.703125 -10.515625 11.65625 -10.863281 11.5625 -11.0625 C 11.46875 -11.269531 11.28125 -11.375 11 -11.375 C 10.769531 -11.375 10.535156 -11.3125 10.296875 -11.1875 C 10.066406 -11.0625 9.8125 -10.816406 9.53125 -10.453125 L 9.53125 0 L 6.5625 0 L 6.5625 -10.015625 C 6.5625 -10.515625 6.515625 -10.863281 6.421875 -11.0625 C 6.328125 -11.269531 6.132812 -11.375 5.84375 -11.375 C 5.625 -11.375 5.394531 -11.3125 5.15625 -11.1875 C 4.925781 -11.0625 4.664062 -10.816406 4.375 -10.453125 L 4.375 0 L 0.703125 0 L 0.703125 -14.1875 L 3.8125 -14.1875 L 4.09375 -12.8125 C 4.53125 -13.414062 4.976562 -13.875 5.4375 -14.1875 C 5.894531 -14.5 6.429688 -14.65625 7.046875 -14.65625 C 7.585938 -14.65625 8.046875 -14.519531 8.421875 -14.25 C 8.796875 -13.976562 9.066406 -13.550781 9.234375 -12.96875 C 9.660156 -13.46875 10.128906 -13.875 10.640625 -14.1875 C 11.160156 -14.5 11.734375 -14.65625 12.359375 -14.65625 Z M 12.359375 -14.65625 "/></g></g></g><g fill="#ffffff" fill-opacity="1"><g transform="translate(227.075526, 25.323145)"><g><path d="M 5.53125 -5.859375 C 5.625 -5.085938 5.820312 -4.460938 6.125 -3.984375 C 6.4375 -3.503906 6.832031 -3.15625 7.3125 -2.9375 C 7.800781 -2.726562 8.34375 -2.625 8.9375 -2.625 C 9.582031 -2.625 10.207031 -2.726562 10.8125 -2.9375 C 11.425781 -3.15625 12.015625 -3.441406 12.578125 -3.796875 L 14.265625 -1.5 C 13.597656 -0.925781 12.789062 -0.457031 11.84375 -0.09375 C 10.894531 0.269531 9.816406 0.453125 8.609375 0.453125 C 6.984375 0.453125 5.625 0.128906 4.53125 -0.515625 C 3.4375 -1.160156 2.613281 -2.046875 2.0625 -3.171875 C 1.507812 -4.304688 1.234375 -5.609375 1.234375 -7.078125 C 1.234375 -8.472656 1.5 -9.742188 2.03125 -10.890625 C 2.5625 -12.035156 3.34375 -12.945312 4.375 -13.625 C 5.40625 -14.3125 6.664062 -14.65625 8.15625 -14.65625 C 9.507812 -14.65625 10.679688 -14.363281 11.671875 -13.78125 C 12.660156 -13.207031 13.425781 -12.375 13.96875 -11.28125 C 14.519531 -10.195312 14.796875 -8.894531 14.796875 -7.375 C 14.796875 -7.132812 14.789062 -6.875 14.78125 -6.59375 C 14.769531 -6.320312 14.75 -6.078125 14.71875 -5.859375 Z M 8.15625 -11.828125 C 7.394531 -11.828125 6.78125 -11.550781 6.3125 -11 C 5.851562 -10.457031 5.578125 -9.59375 5.484375 -8.40625 L 10.6875 -8.40625 C 10.675781 -9.4375 10.472656 -10.265625 10.078125 -10.890625 C 9.691406 -11.515625 9.050781 -11.828125 8.15625 -11.828125 Z M 8.15625 -11.828125 "/></g></g></g><g fill="#ffffff" fill-opacity="1"><g transform="translate(243.096998, 25.323145)"><g><path d="M 1.875 0 L 1.875 -14.1875 L 5.5625 -14.1875 L 5.84375 -12.546875 C 6.476562 -13.253906 7.144531 -13.78125 7.84375 -14.125 C 8.550781 -14.476562 9.359375 -14.65625 10.265625 -14.65625 C 11.472656 -14.65625 12.421875 -14.285156 13.109375 -13.546875 C 13.804688 -12.804688 14.15625 -11.765625 14.15625 -10.421875 L 14.15625 0 L 9.9375 0 L 9.9375 -9.203125 C 9.9375 -9.785156 9.894531 -10.25 9.8125 -10.59375 C 9.738281 -10.9375 9.597656 -11.179688 9.390625 -11.328125 C 9.191406 -11.472656 8.921875 -11.546875 8.578125 -11.546875 C 8.285156 -11.546875 8 -11.476562 7.71875 -11.34375 C 7.4375 -11.21875 7.160156 -11.035156 6.890625 -10.796875 C 6.628906 -10.554688 6.363281 -10.265625 6.09375 -9.921875 L 6.09375 0 Z M 1.875 0 "/></g></g></g><g fill="#ffffff" fill-opacity="1"><g transform="translate(259.118471, 25.323145)"><g><path d="M 14.640625 -0.828125 C 14.085938 -0.472656 13.421875 -0.171875 12.640625 0.078125 C 11.859375 0.328125 10.976562 0.453125 10 0.453125 C 8.144531 0.453125 6.765625 -0.0195312 5.859375 -0.96875 C 4.960938 -1.914062 4.515625 -3.207031 4.515625 -4.84375 L 4.515625 -11.28125 L 1.53125 -11.28125 L 1.53125 -14.1875 L 4.515625 -14.1875 L 4.515625 -17.265625 L 8.734375 -17.765625 L 8.734375 -14.1875 L 13.3125 -14.1875 L 12.890625 -11.28125 L 8.734375 -11.28125 L 8.734375 -4.84375 C 8.734375 -4.132812 8.894531 -3.628906 9.21875 -3.328125 C 9.539062 -3.023438 10.050781 -2.875 10.75 -2.875 C 11.25 -2.875 11.707031 -2.929688 12.125 -3.046875 C 12.539062 -3.171875 12.910156 -3.328125 13.234375 -3.515625 Z M 14.640625 -0.828125 "/></g></g></g><g fill="#ffffff" fill-opacity="1"><g transform="translate(41.700606, 25.326757)"><g><path d="M 9.734375 -14.671875 C 10.972656 -14.671875 11.972656 -14.363281 12.734375 -13.75 C 13.492188 -13.132812 14.046875 -12.265625 14.390625 -11.140625 C 14.742188 -10.015625 14.921875 -8.679688 14.921875 -7.140625 C 14.921875 -5.679688 14.707031 -4.378906 14.28125 -3.234375 C 13.851562 -2.085938 13.234375 -1.1875 12.421875 -0.53125 C 11.609375 0.125 10.625 0.453125 9.46875 0.453125 C 8.082031 0.453125 6.957031 -0.0390625 6.09375 -1.03125 L 6.09375 5.484375 L 1.875 5.921875 L 1.875 -14.203125 L 5.625 -14.203125 L 5.8125 -12.609375 C 6.382812 -13.347656 7.015625 -13.875 7.703125 -14.1875 C 8.390625 -14.507812 9.066406 -14.671875 9.734375 -14.671875 Z M 8.421875 -11.5625 C 7.929688 -11.5625 7.5 -11.410156 7.125 -11.109375 C 6.75 -10.816406 6.40625 -10.414062 6.09375 -9.90625 L 6.09375 -3.921875 C 6.394531 -3.484375 6.707031 -3.160156 7.03125 -2.953125 C 7.351562 -2.742188 7.738281 -2.640625 8.1875 -2.640625 C 8.9375 -2.640625 9.519531 -2.976562 9.9375 -3.65625 C 10.351562 -4.34375 10.5625 -5.488281 10.5625 -7.09375 C 10.5625 -8.269531 10.476562 -9.179688 10.3125 -9.828125 C 10.144531 -10.472656 9.898438 -10.921875 9.578125 -11.171875 C 9.253906 -11.429688 8.867188 -11.5625 8.421875 -11.5625 Z M 8.421875 -11.5625 "/></g></g></g><g fill="#ffffff" fill-opacity="1"><g transform="translate(57.743039, 25.326757)"><g><path d="M 6.09375 -20.265625 L 6.09375 -12.796875 C 6.695312 -13.429688 7.347656 -13.898438 8.046875 -14.203125 C 8.742188 -14.515625 9.484375 -14.671875 10.265625 -14.671875 C 11.535156 -14.671875 12.503906 -14.300781 13.171875 -13.5625 C 13.835938 -12.820312 14.171875 -11.78125 14.171875 -10.4375 L 14.171875 0 L 9.953125 0 L 9.953125 -9.25 C 9.953125 -10.113281 9.851562 -10.710938 9.65625 -11.046875 C 9.46875 -11.390625 9.113281 -11.5625 8.59375 -11.5625 C 8.289062 -11.5625 8 -11.488281 7.71875 -11.34375 C 7.4375 -11.207031 7.160156 -11.007812 6.890625 -10.75 C 6.628906 -10.488281 6.363281 -10.179688 6.09375 -9.828125 L 6.09375 0 L 1.875 0 L 1.875 -19.84375 Z M 6.09375 -20.265625 "/></g></g></g><g fill="#ffffff" fill-opacity="1"><g transform="translate(73.785472, 25.326757)"><g><path d="M 7.5625 -2.5625 C 8.269531 -2.5625 8.835938 -2.671875 9.265625 -2.890625 C 9.703125 -3.117188 9.921875 -3.457031 9.921875 -3.90625 C 9.921875 -4.207031 9.835938 -4.457031 9.671875 -4.65625 C 9.503906 -4.863281 9.175781 -5.0625 8.6875 -5.25 C 8.207031 -5.4375 7.492188 -5.660156 6.546875 -5.921875 C 5.679688 -6.148438 4.914062 -6.441406 4.25 -6.796875 C 3.59375 -7.160156 3.078125 -7.625 2.703125 -8.1875 C 2.335938 -8.75 2.15625 -9.445312 2.15625 -10.28125 C 2.15625 -11.132812 2.390625 -11.890625 2.859375 -12.546875 C 3.335938 -13.203125 4.035156 -13.71875 4.953125 -14.09375 C 5.867188 -14.476562 6.988281 -14.671875 8.3125 -14.671875 C 9.582031 -14.671875 10.6875 -14.507812 11.625 -14.1875 C 12.570312 -13.863281 13.390625 -13.453125 14.078125 -12.953125 L 12.390625 -10.453125 C 11.796875 -10.816406 11.160156 -11.109375 10.484375 -11.328125 C 9.804688 -11.546875 9.125 -11.65625 8.4375 -11.65625 C 7.75 -11.65625 7.238281 -11.5625 6.90625 -11.375 C 6.570312 -11.195312 6.40625 -10.925781 6.40625 -10.5625 C 6.40625 -10.320312 6.488281 -10.113281 6.65625 -9.9375 C 6.832031 -9.769531 7.160156 -9.59375 7.640625 -9.40625 C 8.128906 -9.226562 8.835938 -9.003906 9.765625 -8.734375 C 10.679688 -8.472656 11.476562 -8.171875 12.15625 -7.828125 C 12.84375 -7.492188 13.375 -7.039062 13.75 -6.46875 C 14.125 -5.90625 14.3125 -5.160156 14.3125 -4.234375 C 14.3125 -3.203125 14.003906 -2.335938 13.390625 -1.640625 C 12.773438 -0.941406 11.957031 -0.414062 10.9375 -0.0625 C 9.925781 0.28125 8.8125 0.453125 7.59375 0.453125 C 6.21875 0.453125 5.003906 0.257812 3.953125 -0.125 C 2.898438 -0.519531 2.003906 -1.039062 1.265625 -1.6875 L 3.390625 -4.0625 C 3.941406 -3.632812 4.566406 -3.273438 5.265625 -2.984375 C 5.972656 -2.703125 6.738281 -2.5625 7.5625 -2.5625 Z M 7.5625 -2.5625 "/></g></g></g></svg>