<svg xmlns="http://www.w3.org/2000/svg" xmlns:xlink="http://www.w3.org/1999/xlink" width="200" zoomAndPan="magnify" viewBox="0 0 150 149.999998" height="200" preserveAspectRatio="xMidYMid meet" version="1.0"><defs><clipPath id="f2c201c4f0"><path d="M 80 3.132812 L 147 3.132812 L 147 70 L 80 70 Z M 80 3.132812 " clip-rule="nonzero"/></clipPath><clipPath id="668a8bd809"><path d="M 28 3.132812 L 70 3.132812 L 70 147 L 28 147 Z M 28 3.132812 " clip-rule="nonzero"/></clipPath><clipPath id="87fe4af71f"><path d="M 3.132812 28 L 122 28 L 122 147 L 3.132812 147 Z M 3.132812 28 " clip-rule="nonzero"/></clipPath><clipPath id="ebd556200f"><path d="M 3.132812 80 L 147 80 L 147 122 L 3.132812 122 Z M 3.132812 80 " clip-rule="nonzero"/></clipPath></defs><g clip-path="url(#f2c201c4f0)"><path fill="#ffffff" d="M 110.652344 69.523438 L 146.800781 69.523438 L 146.832031 3.132812 L 80.46875 3.132812 L 80.46875 39.429688 L 110.652344 39.429688 Z M 110.652344 69.523438 " fill-opacity="1" fill-rule="evenodd"/></g><g clip-path="url(#668a8bd809)"><path fill="#ffffff" d="M 69.34375 39.875 L 69.34375 3.339844 C 54.105469 4.503906 39.726562 10.46875 28.125 20.429688 L 53.953125 46.257812 C 58.488281 42.917969 63.765625 40.742188 69.34375 39.875 Z M 69.34375 146.832031 L 69.34375 110.324219 C 63.765625 109.460938 58.488281 107.253906 53.925781 103.941406 L 28.09375 129.773438 C 39.726562 139.703125 54.105469 145.667969 69.34375 146.832031 Z M 69.34375 146.832031 " fill-opacity="1" fill-rule="evenodd"/></g><g clip-path="url(#87fe4af71f)"><path fill="#ffffff" d="M 46.082031 54.105469 L 20.25 28.304688 C 10.289062 39.90625 4.324219 54.28125 3.160156 69.523438 L 39.699219 69.523438 C 40.5625 63.945312 42.738281 58.667969 46.082031 54.105469 Z M 121.71875 129.773438 L 95.890625 103.941406 C 91.324219 107.253906 86.046875 109.460938 80.46875 110.324219 L 80.46875 146.863281 C 95.710938 145.667969 110.117188 139.703125 121.71875 129.773438 Z M 121.71875 129.773438 " fill-opacity="1" fill-rule="evenodd"/></g><g clip-path="url(#ebd556200f)"><path fill="#ffffff" d="M 39.667969 80.648438 L 3.160156 80.648438 C 4.324219 95.890625 10.289062 110.265625 20.25 121.898438 L 46.082031 96.070312 C 42.738281 91.503906 40.5625 86.226562 39.667969 80.648438 Z M 146.652344 80.648438 L 110.144531 80.648438 C 109.28125 86.226562 107.074219 91.503906 103.761719 96.070312 L 129.59375 121.898438 C 139.523438 110.296875 145.488281 95.890625 146.652344 80.648438 Z M 146.652344 80.648438 " fill-opacity="1" fill-rule="evenodd"/></g></svg>