<svg xmlns="http://www.w3.org/2000/svg" xmlns:xlink="http://www.w3.org/1999/xlink" width="300" zoomAndPan="magnify" viewBox="0 0 224.87999 37.5" height="50" preserveAspectRatio="xMidYMid meet" version="1.0"><defs><g/><clipPath id="0df2c410d7"><path d="M 16 7.816406 L 26.585938 7.816406 L 26.585938 18 L 16 18 Z M 16 7.816406 " clip-rule="nonzero"/></clipPath><clipPath id="bffb2a2ee5"><path d="M 8 7.816406 L 15 7.816406 L 15 29.28125 L 8 29.28125 Z M 8 7.816406 " clip-rule="nonzero"/></clipPath><clipPath id="3441b4f336"><path d="M 5.121094 11 L 23 11 L 23 29.28125 L 5.121094 29.28125 Z M 5.121094 11 " clip-rule="nonzero"/></clipPath><clipPath id="a9ab16dcb4"><path d="M 5.121094 19 L 26.585938 19 L 26.585938 26 L 5.121094 26 Z M 5.121094 19 " clip-rule="nonzero"/></clipPath></defs><g clip-path="url(#0df2c410d7)"><path fill="#ffffff" d="M 21.101562 17.683594 L 26.472656 17.683594 L 26.476562 7.816406 L 16.613281 7.816406 L 16.613281 13.210938 L 21.101562 13.210938 Z M 21.101562 17.683594 " fill-opacity="1" fill-rule="evenodd"/></g><g clip-path="url(#bffb2a2ee5)"><path fill="#ffffff" d="M 14.960938 13.277344 L 14.960938 7.847656 C 12.695312 8.023438 10.558594 8.90625 8.835938 10.386719 L 12.671875 14.226562 C 13.347656 13.730469 14.132812 13.40625 14.960938 13.277344 Z M 14.960938 29.171875 L 14.960938 23.746094 C 14.132812 23.621094 13.347656 23.292969 12.667969 22.800781 L 8.832031 26.636719 C 10.558594 28.113281 12.695312 29 14.960938 29.171875 Z M 14.960938 29.171875 " fill-opacity="1" fill-rule="evenodd"/></g><g clip-path="url(#3441b4f336)"><path fill="#ffffff" d="M 11.503906 15.394531 L 7.664062 11.558594 C 6.183594 13.28125 5.296875 15.417969 5.125 17.683594 L 10.554688 17.683594 C 10.683594 16.855469 11.007812 16.070312 11.503906 15.394531 Z M 22.742188 26.636719 L 18.90625 22.800781 C 18.226562 23.292969 17.441406 23.621094 16.613281 23.746094 L 16.613281 29.175781 C 18.878906 29 21.019531 28.113281 22.742188 26.636719 Z M 22.742188 26.636719 " fill-opacity="1" fill-rule="evenodd"/></g><g clip-path="url(#a9ab16dcb4)"><path fill="#ffffff" d="M 10.550781 19.335938 L 5.125 19.335938 C 5.296875 21.601562 6.183594 23.738281 7.664062 25.46875 L 11.503906 21.628906 C 11.007812 20.949219 10.683594 20.167969 10.550781 19.335938 Z M 26.449219 19.335938 L 21.023438 19.335938 C 20.894531 20.167969 20.566406 20.949219 20.074219 21.628906 L 23.914062 25.46875 C 25.390625 23.742188 26.277344 21.601562 26.449219 19.335938 Z M 26.449219 19.335938 " fill-opacity="1" fill-rule="evenodd"/></g><g fill="#ffffff" fill-opacity="1"><g transform="translate(78.352441, 22.823112)"><g><path d="M 5.921875 0.234375 C 4.921875 0.234375 4.039062 -0.00390625 3.28125 -0.484375 C 2.53125 -0.972656 1.941406 -1.664062 1.515625 -2.5625 C 1.097656 -3.457031 0.890625 -4.515625 0.890625 -5.734375 C 0.890625 -6.960938 1.097656 -8.019531 1.515625 -8.90625 C 1.941406 -9.789062 2.53125 -10.472656 3.28125 -10.953125 C 4.039062 -11.441406 4.921875 -11.6875 5.921875 -11.6875 C 6.867188 -11.6875 7.695312 -11.453125 8.40625 -10.984375 C 9.125 -10.515625 9.609375 -9.894531 9.859375 -9.125 L 9.59375 -9.125 L 9.59375 -15.21875 C 9.59375 -15.695312 9.71875 -16.0625 9.96875 -16.3125 C 10.21875 -16.5625 10.578125 -16.6875 11.046875 -16.6875 C 11.515625 -16.6875 11.875 -16.5625 12.125 -16.3125 C 12.382812 -16.0625 12.515625 -15.695312 12.515625 -15.21875 L 12.515625 -1.3125 C 12.515625 -0.820312 12.390625 -0.445312 12.140625 -0.1875 C 11.890625 0.0625 11.535156 0.1875 11.078125 0.1875 C 10.609375 0.1875 10.25 0.0625 10 -0.1875 C 9.75 -0.445312 9.625 -0.820312 9.625 -1.3125 L 9.625 -3.140625 L 9.875 -2.4375 C 9.644531 -1.625 9.171875 -0.972656 8.453125 -0.484375 C 7.734375 -0.00390625 6.890625 0.234375 5.921875 0.234375 Z M 6.734375 -1.984375 C 7.316406 -1.984375 7.828125 -2.125 8.265625 -2.40625 C 8.703125 -2.6875 9.039062 -3.101562 9.28125 -3.65625 C 9.519531 -4.21875 9.640625 -4.910156 9.640625 -5.734375 C 9.640625 -6.984375 9.375 -7.914062 8.84375 -8.53125 C 8.3125 -9.144531 7.609375 -9.453125 6.734375 -9.453125 C 6.160156 -9.453125 5.65625 -9.316406 5.21875 -9.046875 C 4.78125 -8.773438 4.441406 -8.359375 4.203125 -7.796875 C 3.960938 -7.242188 3.84375 -6.554688 3.84375 -5.734375 C 3.84375 -4.503906 4.109375 -3.570312 4.640625 -2.9375 C 5.171875 -2.300781 5.867188 -1.984375 6.734375 -1.984375 Z M 6.734375 -1.984375 "/></g></g></g><g fill="#ffffff" fill-opacity="1"><g transform="translate(92.396453, 22.823112)"><g><path d="M 7.15625 0.234375 C 5.863281 0.234375 4.75 -0.00390625 3.8125 -0.484375 C 2.875 -0.972656 2.148438 -1.660156 1.640625 -2.546875 C 1.140625 -3.441406 0.890625 -4.5 0.890625 -5.71875 C 0.890625 -6.894531 1.132812 -7.925781 1.625 -8.8125 C 2.113281 -9.707031 2.789062 -10.410156 3.65625 -10.921875 C 4.53125 -11.429688 5.519531 -11.6875 6.625 -11.6875 C 7.4375 -11.6875 8.164062 -11.550781 8.8125 -11.28125 C 9.457031 -11.019531 10.007812 -10.640625 10.46875 -10.140625 C 10.9375 -9.640625 11.289062 -9.03125 11.53125 -8.3125 C 11.769531 -7.601562 11.890625 -6.804688 11.890625 -5.921875 C 11.890625 -5.640625 11.789062 -5.425781 11.59375 -5.28125 C 11.40625 -5.132812 11.128906 -5.0625 10.765625 -5.0625 L 3.25 -5.0625 L 3.25 -6.734375 L 9.828125 -6.734375 L 9.453125 -6.390625 C 9.453125 -7.109375 9.347656 -7.707031 9.140625 -8.1875 C 8.929688 -8.675781 8.625 -9.046875 8.21875 -9.296875 C 7.820312 -9.554688 7.328125 -9.6875 6.734375 -9.6875 C 6.085938 -9.6875 5.53125 -9.535156 5.0625 -9.234375 C 4.601562 -8.929688 4.253906 -8.5 4.015625 -7.9375 C 3.773438 -7.382812 3.65625 -6.726562 3.65625 -5.96875 L 3.65625 -5.8125 C 3.65625 -4.53125 3.953125 -3.570312 4.546875 -2.9375 C 5.148438 -2.300781 6.035156 -1.984375 7.203125 -1.984375 C 7.609375 -1.984375 8.066406 -2.035156 8.578125 -2.140625 C 9.085938 -2.242188 9.566406 -2.421875 10.015625 -2.671875 C 10.347656 -2.859375 10.640625 -2.9375 10.890625 -2.90625 C 11.140625 -2.882812 11.335938 -2.796875 11.484375 -2.640625 C 11.628906 -2.484375 11.71875 -2.289062 11.75 -2.0625 C 11.78125 -1.84375 11.738281 -1.613281 11.625 -1.375 C 11.507812 -1.144531 11.3125 -0.941406 11.03125 -0.765625 C 10.476562 -0.421875 9.847656 -0.164062 9.140625 0 C 8.429688 0.15625 7.769531 0.234375 7.15625 0.234375 Z M 7.15625 0.234375 "/></g></g></g><g fill="#ffffff" fill-opacity="1"><g transform="translate(105.082871, 22.823112)"><g><path d="M 6.15625 0.1875 C 5.769531 0.1875 5.429688 0.0859375 5.140625 -0.109375 C 4.847656 -0.316406 4.609375 -0.628906 4.421875 -1.046875 L 0.703125 -9.6875 C 0.554688 -10.03125 0.503906 -10.347656 0.546875 -10.640625 C 0.585938 -10.941406 0.726562 -11.179688 0.96875 -11.359375 C 1.207031 -11.546875 1.539062 -11.640625 1.96875 -11.640625 C 2.320312 -11.640625 2.609375 -11.554688 2.828125 -11.390625 C 3.046875 -11.222656 3.242188 -10.914062 3.421875 -10.46875 L 6.578125 -2.578125 L 5.875 -2.578125 L 9.125 -10.484375 C 9.300781 -10.921875 9.5 -11.222656 9.71875 -11.390625 C 9.945312 -11.554688 10.257812 -11.640625 10.65625 -11.640625 C 11 -11.640625 11.269531 -11.546875 11.46875 -11.359375 C 11.664062 -11.179688 11.785156 -10.945312 11.828125 -10.65625 C 11.878906 -10.375 11.832031 -10.0625 11.6875 -9.71875 L 7.890625 -1.046875 C 7.710938 -0.628906 7.476562 -0.316406 7.1875 -0.109375 C 6.90625 0.0859375 6.5625 0.1875 6.15625 0.1875 Z M 6.15625 0.1875 "/></g></g></g><g fill="#ffffff" fill-opacity="1"><g transform="translate(117.418198, 22.823112)"><g><path d="M 7.15625 0.234375 C 5.863281 0.234375 4.75 -0.00390625 3.8125 -0.484375 C 2.875 -0.972656 2.148438 -1.660156 1.640625 -2.546875 C 1.140625 -3.441406 0.890625 -4.5 0.890625 -5.71875 C 0.890625 -6.894531 1.132812 -7.925781 1.625 -8.8125 C 2.113281 -9.707031 2.789062 -10.410156 3.65625 -10.921875 C 4.53125 -11.429688 5.519531 -11.6875 6.625 -11.6875 C 7.4375 -11.6875 8.164062 -11.550781 8.8125 -11.28125 C 9.457031 -11.019531 10.007812 -10.640625 10.46875 -10.140625 C 10.9375 -9.640625 11.289062 -9.03125 11.53125 -8.3125 C 11.769531 -7.601562 11.890625 -6.804688 11.890625 -5.921875 C 11.890625 -5.640625 11.789062 -5.425781 11.59375 -5.28125 C 11.40625 -5.132812 11.128906 -5.0625 10.765625 -5.0625 L 3.25 -5.0625 L 3.25 -6.734375 L 9.828125 -6.734375 L 9.453125 -6.390625 C 9.453125 -7.109375 9.347656 -7.707031 9.140625 -8.1875 C 8.929688 -8.675781 8.625 -9.046875 8.21875 -9.296875 C 7.820312 -9.554688 7.328125 -9.6875 6.734375 -9.6875 C 6.085938 -9.6875 5.53125 -9.535156 5.0625 -9.234375 C 4.601562 -8.929688 4.253906 -8.5 4.015625 -7.9375 C 3.773438 -7.382812 3.65625 -6.726562 3.65625 -5.96875 L 3.65625 -5.8125 C 3.65625 -4.53125 3.953125 -3.570312 4.546875 -2.9375 C 5.148438 -2.300781 6.035156 -1.984375 7.203125 -1.984375 C 7.609375 -1.984375 8.066406 -2.035156 8.578125 -2.140625 C 9.085938 -2.242188 9.566406 -2.421875 10.015625 -2.671875 C 10.347656 -2.859375 10.640625 -2.9375 10.890625 -2.90625 C 11.140625 -2.882812 11.335938 -2.796875 11.484375 -2.640625 C 11.628906 -2.484375 11.71875 -2.289062 11.75 -2.0625 C 11.78125 -1.84375 11.738281 -1.613281 11.625 -1.375 C 11.507812 -1.144531 11.3125 -0.941406 11.03125 -0.765625 C 10.476562 -0.421875 9.847656 -0.164062 9.140625 0 C 8.429688 0.15625 7.769531 0.234375 7.15625 0.234375 Z M 7.15625 0.234375 "/></g></g></g><g fill="#ffffff" fill-opacity="1"><g transform="translate(130.104616, 22.823112)"><g><path d="M 5.4375 0.234375 C 4.132812 0.234375 3.15625 -0.132812 2.5 -0.875 C 1.84375 -1.613281 1.515625 -2.703125 1.515625 -4.140625 L 1.515625 -15.21875 C 1.515625 -15.695312 1.640625 -16.0625 1.890625 -16.3125 C 2.140625 -16.5625 2.5 -16.6875 2.96875 -16.6875 C 3.4375 -16.6875 3.800781 -16.5625 4.0625 -16.3125 C 4.320312 -16.0625 4.453125 -15.695312 4.453125 -15.21875 L 4.453125 -4.28125 C 4.453125 -3.5625 4.601562 -3.03125 4.90625 -2.6875 C 5.207031 -2.34375 5.640625 -2.171875 6.203125 -2.171875 C 6.328125 -2.171875 6.441406 -2.175781 6.546875 -2.1875 C 6.660156 -2.195312 6.769531 -2.207031 6.875 -2.21875 C 7.09375 -2.25 7.238281 -2.191406 7.3125 -2.046875 C 7.394531 -1.898438 7.4375 -1.597656 7.4375 -1.140625 C 7.4375 -0.753906 7.359375 -0.453125 7.203125 -0.234375 C 7.046875 -0.015625 6.789062 0.113281 6.4375 0.15625 C 6.28125 0.175781 6.113281 0.191406 5.9375 0.203125 C 5.769531 0.222656 5.601562 0.234375 5.4375 0.234375 Z M 5.4375 0.234375 "/></g></g></g><g fill="#ffffff" fill-opacity="1"><g transform="translate(137.571344, 22.823112)"><g><path d="M 6.734375 0.234375 C 5.554688 0.234375 4.53125 -0.00390625 3.65625 -0.484375 C 2.78125 -0.972656 2.097656 -1.664062 1.609375 -2.5625 C 1.128906 -3.457031 0.890625 -4.515625 0.890625 -5.734375 C 0.890625 -6.648438 1.023438 -7.472656 1.296875 -8.203125 C 1.566406 -8.929688 1.957031 -9.554688 2.46875 -10.078125 C 2.988281 -10.597656 3.609375 -10.992188 4.328125 -11.265625 C 5.046875 -11.546875 5.847656 -11.6875 6.734375 -11.6875 C 7.921875 -11.6875 8.953125 -11.441406 9.828125 -10.953125 C 10.703125 -10.472656 11.378906 -9.785156 11.859375 -8.890625 C 12.347656 -8.003906 12.59375 -6.953125 12.59375 -5.734375 C 12.59375 -4.816406 12.453125 -3.988281 12.171875 -3.25 C 11.898438 -2.519531 11.507812 -1.890625 11 -1.359375 C 10.488281 -0.835938 9.875 -0.441406 9.15625 -0.171875 C 8.4375 0.0976562 7.628906 0.234375 6.734375 0.234375 Z M 6.734375 -1.984375 C 7.316406 -1.984375 7.828125 -2.125 8.265625 -2.40625 C 8.703125 -2.6875 9.039062 -3.101562 9.28125 -3.65625 C 9.519531 -4.21875 9.640625 -4.910156 9.640625 -5.734375 C 9.640625 -6.984375 9.375 -7.914062 8.84375 -8.53125 C 8.3125 -9.144531 7.609375 -9.453125 6.734375 -9.453125 C 6.160156 -9.453125 5.65625 -9.316406 5.21875 -9.046875 C 4.78125 -8.773438 4.441406 -8.359375 4.203125 -7.796875 C 3.960938 -7.242188 3.84375 -6.554688 3.84375 -5.734375 C 3.84375 -4.503906 4.109375 -3.570312 4.640625 -2.9375 C 5.171875 -2.300781 5.867188 -1.984375 6.734375 -1.984375 Z M 6.734375 -1.984375 "/></g></g></g><g fill="#ffffff" fill-opacity="1"><g transform="translate(151.053594, 22.823112)"><g><path d="M 2.96875 4.40625 C 2.5 4.40625 2.140625 4.28125 1.890625 4.03125 C 1.640625 3.78125 1.515625 3.410156 1.515625 2.921875 L 1.515625 -10.15625 C 1.515625 -10.644531 1.640625 -11.015625 1.890625 -11.265625 C 2.140625 -11.515625 2.492188 -11.640625 2.953125 -11.640625 C 3.421875 -11.640625 3.78125 -11.515625 4.03125 -11.265625 C 4.28125 -11.015625 4.40625 -10.644531 4.40625 -10.15625 L 4.40625 -8.328125 L 4.140625 -9.03125 C 4.378906 -9.832031 4.859375 -10.472656 5.578125 -10.953125 C 6.304688 -11.441406 7.15625 -11.6875 8.125 -11.6875 C 9.125 -11.6875 10 -11.441406 10.75 -10.953125 C 11.507812 -10.472656 12.097656 -9.789062 12.515625 -8.90625 C 12.941406 -8.019531 13.15625 -6.960938 13.15625 -5.734375 C 13.15625 -4.515625 12.941406 -3.457031 12.515625 -2.5625 C 12.097656 -1.664062 11.515625 -0.972656 10.765625 -0.484375 C 10.015625 -0.00390625 9.132812 0.234375 8.125 0.234375 C 7.164062 0.234375 6.328125 0 5.609375 -0.46875 C 4.898438 -0.945312 4.421875 -1.570312 4.171875 -2.34375 L 4.453125 -2.34375 L 4.453125 2.921875 C 4.453125 3.410156 4.320312 3.78125 4.0625 4.03125 C 3.800781 4.28125 3.4375 4.40625 2.96875 4.40625 Z M 7.296875 -1.984375 C 7.878906 -1.984375 8.390625 -2.125 8.828125 -2.40625 C 9.265625 -2.6875 9.601562 -3.101562 9.84375 -3.65625 C 10.082031 -4.21875 10.203125 -4.910156 10.203125 -5.734375 C 10.203125 -6.984375 9.9375 -7.914062 9.40625 -8.53125 C 8.875 -9.144531 8.171875 -9.453125 7.296875 -9.453125 C 6.722656 -9.453125 6.21875 -9.316406 5.78125 -9.046875 C 5.34375 -8.773438 5.003906 -8.359375 4.765625 -7.796875 C 4.523438 -7.242188 4.40625 -6.554688 4.40625 -5.734375 C 4.40625 -4.503906 4.664062 -3.570312 5.1875 -2.9375 C 5.71875 -2.300781 6.421875 -1.984375 7.296875 -1.984375 Z M 7.296875 -1.984375 "/></g></g></g><g fill="#ffffff" fill-opacity="1"><g transform="translate(165.097606, 22.823112)"><g><path d="M 3.015625 0.1875 C 2.546875 0.1875 2.1875 0.0625 1.9375 -0.1875 C 1.6875 -0.445312 1.5625 -0.820312 1.5625 -1.3125 L 1.5625 -10.15625 C 1.5625 -10.644531 1.6875 -11.015625 1.9375 -11.265625 C 2.1875 -11.515625 2.539062 -11.640625 3 -11.640625 C 3.445312 -11.640625 3.796875 -11.515625 4.046875 -11.265625 C 4.296875 -11.015625 4.421875 -10.644531 4.421875 -10.15625 L 4.421875 -8.453125 L 4.171875 -9.15625 C 4.484375 -9.9375 4.960938 -10.550781 5.609375 -11 C 6.265625 -11.457031 7.046875 -11.6875 7.953125 -11.6875 C 8.878906 -11.6875 9.640625 -11.46875 10.234375 -11.03125 C 10.828125 -10.59375 11.238281 -9.921875 11.46875 -9.015625 L 11.140625 -9.015625 C 11.453125 -9.835938 11.96875 -10.488281 12.6875 -10.96875 C 13.40625 -11.445312 14.234375 -11.6875 15.171875 -11.6875 C 16.046875 -11.6875 16.765625 -11.515625 17.328125 -11.171875 C 17.898438 -10.828125 18.328125 -10.304688 18.609375 -9.609375 C 18.890625 -8.910156 19.03125 -8.03125 19.03125 -6.96875 L 19.03125 -1.3125 C 19.03125 -0.820312 18.898438 -0.445312 18.640625 -0.1875 C 18.378906 0.0625 18.019531 0.1875 17.5625 0.1875 C 17.09375 0.1875 16.734375 0.0625 16.484375 -0.1875 C 16.234375 -0.445312 16.109375 -0.820312 16.109375 -1.3125 L 16.109375 -6.859375 C 16.109375 -7.734375 15.960938 -8.375 15.671875 -8.78125 C 15.378906 -9.1875 14.890625 -9.390625 14.203125 -9.390625 C 13.441406 -9.390625 12.84375 -9.117188 12.40625 -8.578125 C 11.96875 -8.035156 11.75 -7.289062 11.75 -6.34375 L 11.75 -1.3125 C 11.75 -0.820312 11.625 -0.445312 11.375 -0.1875 C 11.125 0.0625 10.765625 0.1875 10.296875 0.1875 C 9.828125 0.1875 9.460938 0.0625 9.203125 -0.1875 C 8.953125 -0.445312 8.828125 -0.820312 8.828125 -1.3125 L 8.828125 -6.859375 C 8.828125 -7.734375 8.679688 -8.375 8.390625 -8.78125 C 8.097656 -9.1875 7.617188 -9.390625 6.953125 -9.390625 C 6.191406 -9.390625 5.59375 -9.117188 5.15625 -8.578125 C 4.71875 -8.035156 4.5 -7.289062 4.5 -6.34375 L 4.5 -1.3125 C 4.5 -0.3125 4.003906 0.1875 3.015625 0.1875 Z M 3.015625 0.1875 "/></g></g></g><g fill="#ffffff" fill-opacity="1"><g transform="translate(185.625267, 22.823112)"><g><path d="M 7.15625 0.234375 C 5.863281 0.234375 4.75 -0.00390625 3.8125 -0.484375 C 2.875 -0.972656 2.148438 -1.660156 1.640625 -2.546875 C 1.140625 -3.441406 0.890625 -4.5 0.890625 -5.71875 C 0.890625 -6.894531 1.132812 -7.925781 1.625 -8.8125 C 2.113281 -9.707031 2.789062 -10.410156 3.65625 -10.921875 C 4.53125 -11.429688 5.519531 -11.6875 6.625 -11.6875 C 7.4375 -11.6875 8.164062 -11.550781 8.8125 -11.28125 C 9.457031 -11.019531 10.007812 -10.640625 10.46875 -10.140625 C 10.9375 -9.640625 11.289062 -9.03125 11.53125 -8.3125 C 11.769531 -7.601562 11.890625 -6.804688 11.890625 -5.921875 C 11.890625 -5.640625 11.789062 -5.425781 11.59375 -5.28125 C 11.40625 -5.132812 11.128906 -5.0625 10.765625 -5.0625 L 3.25 -5.0625 L 3.25 -6.734375 L 9.828125 -6.734375 L 9.453125 -6.390625 C 9.453125 -7.109375 9.347656 -7.707031 9.140625 -8.1875 C 8.929688 -8.675781 8.625 -9.046875 8.21875 -9.296875 C 7.820312 -9.554688 7.328125 -9.6875 6.734375 -9.6875 C 6.085938 -9.6875 5.53125 -9.535156 5.0625 -9.234375 C 4.601562 -8.929688 4.253906 -8.5 4.015625 -7.9375 C 3.773438 -7.382812 3.65625 -6.726562 3.65625 -5.96875 L 3.65625 -5.8125 C 3.65625 -4.53125 3.953125 -3.570312 4.546875 -2.9375 C 5.148438 -2.300781 6.035156 -1.984375 7.203125 -1.984375 C 7.609375 -1.984375 8.066406 -2.035156 8.578125 -2.140625 C 9.085938 -2.242188 9.566406 -2.421875 10.015625 -2.671875 C 10.347656 -2.859375 10.640625 -2.9375 10.890625 -2.90625 C 11.140625 -2.882812 11.335938 -2.796875 11.484375 -2.640625 C 11.628906 -2.484375 11.71875 -2.289062 11.75 -2.0625 C 11.78125 -1.84375 11.738281 -1.613281 11.625 -1.375 C 11.507812 -1.144531 11.3125 -0.941406 11.03125 -0.765625 C 10.476562 -0.421875 9.847656 -0.164062 9.140625 0 C 8.429688 0.15625 7.769531 0.234375 7.15625 0.234375 Z M 7.15625 0.234375 "/></g></g></g><g fill="#ffffff" fill-opacity="1"><g transform="translate(198.311686, 22.823112)"><g><path d="M 2.96875 0.1875 C 2.5 0.1875 2.140625 0.0625 1.890625 -0.1875 C 1.640625 -0.445312 1.515625 -0.820312 1.515625 -1.3125 L 1.515625 -10.15625 C 1.515625 -10.644531 1.640625 -11.015625 1.890625 -11.265625 C 2.140625 -11.515625 2.492188 -11.640625 2.953125 -11.640625 C 3.398438 -11.640625 3.75 -11.515625 4 -11.265625 C 4.25 -11.015625 4.375 -10.644531 4.375 -10.15625 L 4.375 -8.5625 L 4.125 -9.15625 C 4.46875 -9.976562 5 -10.601562 5.71875 -11.03125 C 6.445312 -11.46875 7.269531 -11.6875 8.1875 -11.6875 C 9.113281 -11.6875 9.875 -11.515625 10.46875 -11.171875 C 11.0625 -10.828125 11.503906 -10.304688 11.796875 -9.609375 C 12.085938 -8.910156 12.234375 -8.03125 12.234375 -6.96875 L 12.234375 -1.3125 C 12.234375 -0.820312 12.109375 -0.445312 11.859375 -0.1875 C 11.617188 0.0625 11.265625 0.1875 10.796875 0.1875 C 10.328125 0.1875 9.960938 0.0625 9.703125 -0.1875 C 9.441406 -0.445312 9.3125 -0.820312 9.3125 -1.3125 L 9.3125 -6.828125 C 9.3125 -7.722656 9.144531 -8.375 8.8125 -8.78125 C 8.476562 -9.1875 7.957031 -9.390625 7.25 -9.390625 C 6.394531 -9.390625 5.710938 -9.117188 5.203125 -8.578125 C 4.703125 -8.035156 4.453125 -7.320312 4.453125 -6.4375 L 4.453125 -1.3125 C 4.453125 -0.3125 3.957031 0.1875 2.96875 0.1875 Z M 2.96875 0.1875 "/></g></g></g><g fill="#ffffff" fill-opacity="1"><g transform="translate(212.004594, 22.823112)"><g><path d="M 6.765625 0.234375 C 5.753906 0.234375 4.90625 0.0625 4.21875 -0.28125 C 3.539062 -0.625 3.035156 -1.125 2.703125 -1.78125 C 2.378906 -2.445312 2.21875 -3.273438 2.21875 -4.265625 L 2.21875 -9.25 L 1 -9.25 C 0.625 -9.25 0.335938 -9.34375 0.140625 -9.53125 C -0.0546875 -9.726562 -0.15625 -10 -0.15625 -10.34375 C -0.15625 -10.707031 -0.0546875 -10.984375 0.140625 -11.171875 C 0.335938 -11.359375 0.625 -11.453125 1 -11.453125 L 2.21875 -11.453125 L 2.21875 -13.578125 C 2.21875 -14.054688 2.347656 -14.421875 2.609375 -14.671875 C 2.867188 -14.921875 3.234375 -15.046875 3.703125 -15.046875 C 4.171875 -15.046875 4.53125 -14.921875 4.78125 -14.671875 C 5.03125 -14.421875 5.15625 -14.054688 5.15625 -13.578125 L 5.15625 -11.453125 L 7.625 -11.453125 C 8 -11.453125 8.285156 -11.359375 8.484375 -11.171875 C 8.691406 -10.984375 8.796875 -10.707031 8.796875 -10.34375 C 8.796875 -10 8.691406 -9.726562 8.484375 -9.53125 C 8.285156 -9.34375 8 -9.25 7.625 -9.25 L 5.15625 -9.25 L 5.15625 -4.421875 C 5.15625 -3.671875 5.316406 -3.109375 5.640625 -2.734375 C 5.960938 -2.359375 6.492188 -2.171875 7.234375 -2.171875 C 7.492188 -2.171875 7.722656 -2.191406 7.921875 -2.234375 C 8.128906 -2.285156 8.3125 -2.320312 8.46875 -2.34375 C 8.65625 -2.351562 8.8125 -2.289062 8.9375 -2.15625 C 9.0625 -2.03125 9.125 -1.765625 9.125 -1.359375 C 9.125 -1.046875 9.070312 -0.765625 8.96875 -0.515625 C 8.875 -0.273438 8.691406 -0.109375 8.421875 -0.015625 C 8.222656 0.0351562 7.957031 0.0859375 7.625 0.140625 C 7.300781 0.203125 7.015625 0.234375 6.765625 0.234375 Z M 6.765625 0.234375 "/></g></g></g><g fill="#ffffff" fill-opacity="1"><g transform="translate(31.412023, 22.819944)"><g><path d="M 2.984375 4.40625 C 2.515625 4.40625 2.15625 4.28125 1.90625 4.03125 C 1.65625 3.78125 1.53125 3.414062 1.53125 2.9375 L 1.53125 -10.171875 C 1.53125 -10.660156 1.65625 -11.03125 1.90625 -11.28125 C 2.15625 -11.53125 2.503906 -11.65625 2.953125 -11.65625 C 3.421875 -11.65625 3.78125 -11.53125 4.03125 -11.28125 C 4.28125 -11.03125 4.40625 -10.660156 4.40625 -10.171875 L 4.40625 -8.34375 L 4.15625 -9.046875 C 4.382812 -9.847656 4.863281 -10.488281 5.59375 -10.96875 C 6.320312 -11.457031 7.171875 -11.703125 8.140625 -11.703125 C 9.140625 -11.703125 10.015625 -11.457031 10.765625 -10.96875 C 11.523438 -10.488281 12.113281 -9.804688 12.53125 -8.921875 C 12.957031 -8.035156 13.171875 -6.976562 13.171875 -5.75 C 13.171875 -4.53125 12.957031 -3.46875 12.53125 -2.5625 C 12.113281 -1.664062 11.53125 -0.972656 10.78125 -0.484375 C 10.03125 -0.00390625 9.148438 0.234375 8.140625 0.234375 C 7.179688 0.234375 6.34375 -0.00390625 5.625 -0.484375 C 4.90625 -0.960938 4.421875 -1.582031 4.171875 -2.34375 L 4.453125 -2.34375 L 4.453125 2.9375 C 4.453125 3.414062 4.320312 3.78125 4.0625 4.03125 C 3.8125 4.28125 3.453125 4.40625 2.984375 4.40625 Z M 7.3125 -2 C 7.894531 -2 8.40625 -2.140625 8.84375 -2.421875 C 9.28125 -2.703125 9.617188 -3.117188 9.859375 -3.671875 C 10.097656 -4.222656 10.21875 -4.914062 10.21875 -5.75 C 10.21875 -7 9.953125 -7.929688 9.421875 -8.546875 C 8.890625 -9.160156 8.1875 -9.46875 7.3125 -9.46875 C 6.738281 -9.46875 6.234375 -9.332031 5.796875 -9.0625 C 5.359375 -8.789062 5.015625 -8.375 4.765625 -7.8125 C 4.523438 -7.257812 4.40625 -6.570312 4.40625 -5.75 C 4.40625 -4.507812 4.671875 -3.570312 5.203125 -2.9375 C 5.734375 -2.3125 6.4375 -2 7.3125 -2 Z M 7.3125 -2 "/></g></g></g><g fill="#ffffff" fill-opacity="1"><g transform="translate(45.469903, 22.819944)"><g><path d="M 2.984375 0.1875 C 2.515625 0.1875 2.15625 0.0546875 1.90625 -0.203125 C 1.65625 -0.460938 1.53125 -0.832031 1.53125 -1.3125 L 1.53125 -15.234375 C 1.53125 -15.722656 1.65625 -16.09375 1.90625 -16.34375 C 2.15625 -16.59375 2.515625 -16.71875 2.984375 -16.71875 C 3.453125 -16.71875 3.8125 -16.59375 4.0625 -16.34375 C 4.320312 -16.09375 4.453125 -15.722656 4.453125 -15.234375 L 4.453125 -9.171875 L 4.125 -9.171875 C 4.46875 -9.992188 5.003906 -10.617188 5.734375 -11.046875 C 6.460938 -11.484375 7.285156 -11.703125 8.203125 -11.703125 C 9.128906 -11.703125 9.890625 -11.53125 10.484375 -11.1875 C 11.078125 -10.84375 11.519531 -10.320312 11.8125 -9.625 C 12.113281 -8.925781 12.265625 -8.046875 12.265625 -6.984375 L 12.265625 -1.3125 C 12.265625 -0.832031 12.140625 -0.460938 11.890625 -0.203125 C 11.640625 0.0546875 11.28125 0.1875 10.8125 0.1875 C 10.34375 0.1875 9.976562 0.0546875 9.71875 -0.203125 C 9.457031 -0.460938 9.328125 -0.832031 9.328125 -1.3125 L 9.328125 -6.84375 C 9.328125 -7.738281 9.160156 -8.390625 8.828125 -8.796875 C 8.492188 -9.203125 7.972656 -9.40625 7.265625 -9.40625 C 6.410156 -9.40625 5.726562 -9.132812 5.21875 -8.59375 C 4.707031 -8.050781 4.453125 -7.335938 4.453125 -6.453125 L 4.453125 -1.3125 C 4.453125 -0.3125 3.960938 0.1875 2.984375 0.1875 Z M 2.984375 0.1875 "/></g></g></g><g fill="#ffffff" fill-opacity="1"><g transform="translate(59.176341, 22.819944)"><g><path d="M 5.71875 0.234375 C 5.050781 0.234375 4.34375 0.160156 3.59375 0.015625 C 2.84375 -0.117188 2.171875 -0.359375 1.578125 -0.703125 C 1.328125 -0.859375 1.148438 -1.039062 1.046875 -1.25 C 0.941406 -1.46875 0.898438 -1.679688 0.921875 -1.890625 C 0.953125 -2.097656 1.03125 -2.28125 1.15625 -2.4375 C 1.289062 -2.59375 1.460938 -2.691406 1.671875 -2.734375 C 1.890625 -2.785156 2.125 -2.75 2.375 -2.625 C 3 -2.332031 3.582031 -2.125 4.125 -2 C 4.675781 -1.882812 5.21875 -1.828125 5.75 -1.828125 C 6.5 -1.828125 7.054688 -1.957031 7.421875 -2.21875 C 7.785156 -2.476562 7.96875 -2.816406 7.96875 -3.234375 C 7.96875 -3.597656 7.847656 -3.875 7.609375 -4.0625 C 7.367188 -4.257812 7.003906 -4.40625 6.515625 -4.5 L 4.171875 -4.953125 C 3.203125 -5.140625 2.460938 -5.492188 1.953125 -6.015625 C 1.453125 -6.535156 1.203125 -7.210938 1.203125 -8.046875 C 1.203125 -8.796875 1.40625 -9.441406 1.8125 -9.984375 C 2.226562 -10.535156 2.800781 -10.957031 3.53125 -11.25 C 4.269531 -11.550781 5.117188 -11.703125 6.078125 -11.703125 C 6.765625 -11.703125 7.40625 -11.625 8 -11.46875 C 8.601562 -11.320312 9.1875 -11.09375 9.75 -10.78125 C 9.988281 -10.65625 10.148438 -10.488281 10.234375 -10.28125 C 10.316406 -10.082031 10.332031 -9.878906 10.28125 -9.671875 C 10.238281 -9.460938 10.144531 -9.273438 10 -9.109375 C 9.863281 -8.941406 9.691406 -8.835938 9.484375 -8.796875 C 9.273438 -8.765625 9.035156 -8.8125 8.765625 -8.9375 C 8.285156 -9.1875 7.820312 -9.363281 7.375 -9.46875 C 6.925781 -9.582031 6.5 -9.640625 6.09375 -9.640625 C 5.332031 -9.640625 4.765625 -9.503906 4.390625 -9.234375 C 4.023438 -8.972656 3.84375 -8.625 3.84375 -8.1875 C 3.84375 -7.851562 3.953125 -7.578125 4.171875 -7.359375 C 4.390625 -7.140625 4.726562 -6.992188 5.1875 -6.921875 L 7.53125 -6.46875 C 8.539062 -6.28125 9.304688 -5.9375 9.828125 -5.4375 C 10.359375 -4.9375 10.625 -4.265625 10.625 -3.421875 C 10.625 -2.285156 10.175781 -1.390625 9.28125 -0.734375 C 8.394531 -0.0859375 7.207031 0.234375 5.71875 0.234375 Z M 5.71875 0.234375 "/></g></g></g></svg>